<svg xmlns="http://www.w3.org/2000/svg" width="760" height="350" viewBox="0 0 760 350">
<rect width="760" height="350" fill="white"/><g font-family="sans-serif" font-size="14" fill="#22344a">
<text x="60" y="25">nanoGPT: fixed-panel next-token loss (lower is better)</text>
<path d="M60 45V290H710" fill="none" stroke="#aab8c6"/><text x="35" y="295">0</text>
<text x="12" y="55">6.9</text><text x="60" y="315">0 steps</text><text x="620" y="315">3000 steps</text>
<polyline points="60.0,77.4 81.3,164.8 102.7,216.8 124.0,227.8 145.3,234.1 166.7,239.3 188.0,240.8 209.3,243.5 230.7,246.4 252.0,248.6 273.3,250.0 294.7,252.0 316.0,253.9 337.3,254.1 358.7,255.2 380.0,256.1 401.3,257.5 422.7,256.7 444.0,257.7 465.3,257.8 486.7,257.7 508.0,257.7 529.3,258.5 550.7,258.2 572.0,258.5 593.3,258.7 614.7,258.5 636.0,258.8 657.3,259.0 678.7,259.3 700.0,258.9" fill="none" stroke="#247b72" stroke-width="3"/>
<polyline points="60.0,76.4 81.3,166.7 102.7,224.2 124.0,237.9 145.3,244.1 166.7,247.1 188.0,246.7 209.3,249.4 230.7,250.8 252.0,251.4 273.3,252.9 294.7,254.6 316.0,255.4 337.3,255.7 358.7,256.3 380.0,256.2 401.3,256.0 422.7,257.6 444.0,258.1 465.3,259.1 486.7,259.0 508.0,259.5 529.3,259.9 550.7,259.3 572.0,259.6 593.3,260.0 614.7,260.3 636.0,260.3 657.3,260.5 678.7,260.4 700.0,260.6" fill="none" stroke="#b77515" stroke-width="3"/>
<text x="170" y="340" fill="#247b72">Training panel</text><text x="380" y="340" fill="#b77515">Validation panel</text></g></svg>