<svg xmlns="http://www.w3.org/2000/svg" width="760" height="350" viewBox="0 0 760 350">
<rect width="760" height="350" fill="white"/><g font-family="sans-serif" font-size="14" fill="#22344a">
<text x="60" y="25">nanoGPT: fixed-panel next-token loss (lower is better)</text>
<path d="M60 45V290H710" fill="none" stroke="#aab8c6"/><text x="35" y="295">0</text>
<text x="12" y="55">6.9</text><text x="60" y="315">0 steps</text><text x="620" y="315">3000 steps</text>
<polyline points="60.0,77.3 81.3,158.6 102.7,208.4 124.0,224.4 145.3,230.7 166.7,241.1 188.0,242.4 209.3,246.4 230.7,248.5 252.0,248.3 273.3,250.1 294.7,251.7 316.0,251.1 337.3,252.3 358.7,252.5 380.0,254.2 401.3,254.5 422.7,254.6 444.0,255.8 465.3,255.5 486.7,256.2 508.0,257.0 529.3,256.5 550.7,256.7 572.0,257.4 593.3,257.5 614.7,257.4 636.0,257.2 657.3,257.2 678.7,257.4 700.0,257.3" fill="none" stroke="#247b72" stroke-width="3"/>
<polyline points="60.0,76.4 81.3,165.0 102.7,215.4 124.0,231.8 145.3,239.0 166.7,244.8 188.0,247.8 209.3,250.7 230.7,251.8 252.0,254.8 273.3,255.7 294.7,255.0 316.0,257.2 337.3,257.3 358.7,257.9 380.0,259.0 401.3,259.9 422.7,259.5 444.0,259.4 465.3,260.5 486.7,260.7 508.0,261.0 529.3,261.1 550.7,261.4 572.0,261.5 593.3,261.5 614.7,262.1 636.0,262.3 657.3,262.6 678.7,262.6 700.0,262.2" fill="none" stroke="#b77515" stroke-width="3"/>
<text x="170" y="340" fill="#247b72">Training panel</text><text x="380" y="340" fill="#b77515">Validation panel</text></g></svg>